<svg xmlns="http://www.w3.org/2000/svg" viewBox="0 0 24 24" fill="#e6edf3">
  <path d="M12 .6a11.4 11.4 0 0 0-3.6 22.2c.6.1.8-.2.8-.6v-2c-3.3.7-4-1.4-4-1.4-.6-1.4-1.3-1.8-1.3-1.8-1.1-.8.1-.8.1-.8 1.2.1 1.8 1.2 1.8 1.2 1.1 1.8 2.8 1.3 3.5 1 .1-.8.4-1.3.8-1.6-2.7-.3-5.5-1.3-5.5-5.9 0-1.3.5-2.4 1.2-3.2-.1-.3-.5-1.5.1-3.1 0 0 1-.3 3.2 1.2a11.2 11.2 0 0 1 5.8 0c2.2-1.5 3.2-1.2 3.2-1.2.6 1.6.2 2.8.1 3.1.8.8 1.2 1.9 1.2 3.2 0 4.6-2.8 5.6-5.5 5.9.4.4.8 1.1.8 2.1v3.1c0 .4.2.7.8.6A11.4 11.4 0 0 0 12 .6z"/>
</svg>
